<?xml version="1.0" standalone="no"?>
<!DOCTYPE svg PUBLIC "-//W3C//DTD SVG 20010904//EN"
 "http://www.w3.org/TR/2001/REC-SVG-20010904/DTD/svg10.dtd">
<svg version="1.0" xmlns="http://www.w3.org/2000/svg"
 width="512.000000pt" height="512.000000pt" viewBox="0 0 512.000000 512.000000"
 preserveAspectRatio="xMidYMid meet">
<metadata>
Created by potrace 1.11, written by Peter Selinger 2001-2013
</metadata>
<g transform="translate(0.000000,512.000000) scale(0.100000,-0.100000)"
fill="#000000" stroke="none">
<path d="M1684 4399 c-3 -6 -15 -9 -25 -6 -11 3 -19 0 -19 -6 0 -7 -5 -5 -10
3 -6 10 -10 11 -10 3 0 -7 -5 -13 -11 -13 -5 0 -8 4 -5 9 7 11 -21 8 -31 -4
-4 -4 -2 -5 5 -1 6 4 12 2 12 -3 0 -12 -13 -14 -24 -4 -3 4 -15 7 -26 8 -16 1
-17 -1 -8 -12 9 -11 6 -12 -16 -4 -22 9 -26 8 -26 -7 0 -14 -2 -15 -10 -2 -5
8 -12 11 -16 7 -4 -4 -13 -2 -21 5 -8 6 -13 7 -12 2 4 -21 -2 -26 -16 -14 -12
10 -16 9 -21 -3 -3 -9 -12 -13 -19 -11 -7 3 -16 1 -20 -5 -3 -6 -11 -11 -16
-11 -6 0 -8 4 -5 9 4 5 -5 4 -18 -2 -13 -7 -22 -15 -20 -18 2 -4 -6 -5 -18 -1
-16 4 -19 2 -13 -9 8 -12 6 -12 -9 0 -14 12 -17 12 -14 0 2 -8 -7 -15 -20 -17
-13 -2 -26 -10 -29 -18 -3 -8 -9 -12 -13 -9 -5 3 -11 1 -15 -5 -9 -15 -27 -12
-20 3 4 6 -4 0 -17 -14 -13 -14 -32 -25 -41 -23 -9 1 -15 -2 -11 -7 3 -5 0 -9
-6 -9 -6 0 -8 -4 -5 -10 4 -6 -1 -7 -11 -3 -11 4 -15 3 -11 -4 5 -7 -1 -9 -15
-5 -17 4 -20 2 -15 -11 4 -11 2 -14 -9 -10 -8 3 -14 -1 -14 -8 0 -11 -3 -11
-10 1 -8 13 -10 12 -10 -2 0 -10 -5 -18 -11 -18 -5 0 -7 -4 -4 -10 3 -5 0 -7
-8 -4 -9 3 -17 -3 -20 -16 -4 -14 -10 -19 -18 -14 -9 5 -10 2 -6 -10 4 -9 3
-14 -2 -11 -5 3 -12 1 -16 -5 -3 -5 -26 -19 -51 -30 -29 -14 -42 -25 -37 -33
4 -7 0 -6 -10 2 -15 12 -17 12 -11 -4 5 -12 4 -16 -3 -12 -6 4 -13 0 -17 -8
-3 -8 -12 -15 -20 -15 -8 0 -18 -5 -22 -12 -5 -7 -3 -8 6 -3 9 6 11 4 6 -4 -5
-7 -15 -10 -23 -7 -8 3 -12 2 -9 -3 3 -5 -1 -12 -10 -15 -8 -3 -12 -11 -9 -16
4 -6 3 -10 -2 -9 -20 3 -34 -2 -28 -11 4 -6 -8 -13 -25 -16 -21 -5 -29 -11
-26 -20 3 -8 2 -13 -2 -13 -18 3 -32 -2 -32 -11 0 -13 -37 -50 -51 -50 -5 0
-8 -4 -5 -9 3 -4 -2 -17 -10 -27 -9 -10 -12 -13 -8 -5 5 9 3 12 -5 7 -6 -4 -9
-12 -6 -17 3 -5 -7 -22 -24 -38 -16 -16 -27 -32 -23 -37 4 -4 -1 -4 -12 0 -14
5 -17 3 -12 -10 4 -11 2 -15 -8 -11 -10 4 -13 1 -9 -8 3 -8 -2 -18 -11 -21
-13 -5 -14 -9 -5 -21 7 -8 8 -13 3 -12 -22 4 -32 -2 -29 -18 3 -22 -22 -53
-44 -54 -10 0 -12 -2 -4 -6 9 -3 10 -10 3 -22 -5 -10 -6 -22 -2 -27 4 -5 -2
-2 -12 6 -13 10 -17 10 -12 3 4 -8 2 -13 -6 -14 -7 0 -4 -4 7 -9 11 -5 14 -9
7 -9 -7 -1 -10 -5 -7 -11 3 -5 2 -10 -4 -10 -6 0 -7 -7 -4 -17 5 -12 3 -14 -7
-8 -10 6 -12 4 -7 -8 3 -9 3 -16 -1 -14 -4 1 -8 -2 -9 -7 -1 -5 -7 -12 -14
-17 -7 -4 -14 -16 -15 -26 -2 -10 -5 -28 -7 -40 -2 -12 -7 -26 -12 -30 -4 -5
-5 -2 0 6 5 10 4 12 -3 7 -9 -5 -9 -13 -2 -27 8 -13 7 -19 0 -19 -6 0 -8 -4
-5 -10 3 -5 0 -10 -7 -10 -9 0 -9 -3 2 -10 11 -7 11 -10 2 -10 -7 0 -11 -4 -7
-9 3 -5 1 -12 -5 -16 -6 -4 -7 -12 -3 -18 11 -18 11 -47 0 -47 -5 0 -3 -8 4
-17 8 -10 9 -14 2 -10 -6 4 -14 3 -18 -3 -3 -5 0 -10 7 -10 10 0 10 -2 -1 -9
-8 -5 -10 -14 -6 -21 5 -8 4 -11 -2 -7 -6 4 -13 0 -17 -8 -3 -10 1 -15 12 -15
16 -1 16 -1 -1 -11 -9 -5 -17 -15 -17 -22 0 -7 4 -6 10 3 5 8 10 10 10 5 0 -6
-5 -16 -12 -23 -9 -9 -8 -12 7 -12 18 0 18 0 -1 -15 -16 -13 -17 -16 -4 -25
13 -9 13 -10 0 -10 -12 0 -12 -2 -1 -9 8 -5 9 -11 3 -15 -12 -7 -4 -45 15 -68
10 -11 11 -18 3 -23 -14 -9 -8 -48 10 -70 15 -18 16 -21 19 -65 1 -20 3 -22
11 -10 8 13 10 12 11 -5 1 -11 1 -23 0 -27 0 -5 4 -8 10 -8 5 0 7 -5 3 -12 -4
-6 1 -17 11 -25 14 -9 15 -13 4 -13 -11 -1 -11 -3 2 -13 9 -7 15 -20 13 -30
-1 -9 2 -15 7 -11 5 3 9 0 9 -6 0 -6 5 -8 13 -4 8 5 7 2 -2 -9 -12 -15 -12
-17 2 -11 11 4 15 0 13 -13 -2 -10 6 -23 18 -29 12 -6 20 -15 20 -20 -1 -5 7
-18 19 -29 11 -11 17 -15 13 -8 -3 6 -1 15 5 19 7 4 9 3 6 -3 -4 -6 1 -19 9
-29 9 -10 13 -13 9 -6 -3 6 -1 12 4 12 6 0 11 -9 11 -19 0 -10 7 -22 16 -25
12 -5 14 -3 8 7 -5 7 -1 5 8 -6 10 -11 23 -15 30 -11 7 4 10 4 6 0 -10 -12 23
-45 40 -38 10 3 13 1 8 -6 -4 -8 -2 -10 7 -6 9 3 21 -4 29 -15 8 -12 18 -18
21 -14 4 3 7 1 7 -6 0 -7 4 -9 10 -6 9 6 14 -8 11 -28 0 -4 2 -7 6 -6 20 3 53
-15 53 -29 0 -8 3 -12 6 -9 4 4 15 -3 25 -15 13 -14 19 -16 19 -7 0 12 2 12 9
-1 6 -8 7 -18 5 -22 -3 -4 6 -8 20 -8 14 0 26 -3 26 -8 0 -4 9 -13 21 -20 15
-10 19 -10 14 -1 -5 8 -4 10 3 5 7 -4 12 -14 12 -22 0 -8 9 -14 20 -14 11 0
20 -7 20 -15 0 -9 6 -12 16 -8 9 3 21 -3 30 -16 9 -12 19 -19 24 -16 14 8 40
-6 33 -19 -4 -6 1 -5 10 3 11 9 17 10 17 2 0 -6 11 -11 25 -11 14 0 25 -3 25
-7 0 -5 11 -13 25 -20 19 -8 24 -8 19 0 -3 7 2 3 10 -8 9 -10 27 -19 40 -20
12 0 30 -6 39 -14 13 -10 20 -11 31 -2 11 9 16 9 22 0 5 -8 3 -9 -6 -4 -9 5
-11 4 -6 -4 4 -6 12 -9 17 -6 5 4 16 -1 24 -9 9 -8 22 -13 30 -10 8 4 15 1 15
-6 0 -10 3 -10 15 0 13 11 14 10 9 -5 -6 -15 -4 -16 14 -6 19 10 22 9 23 -6 0
-11 3 -13 6 -5 4 10 8 10 21 0 13 -11 14 -11 7 1 -9 16 8 8 38 -17 16 -15 17
-14 12 4 -6 17 -5 16 7 -2 7 -12 19 -19 27 -16 10 3 11 0 5 -9 -6 -12 -5 -12
9 0 15 12 19 12 31 -4 7 -10 18 -15 23 -12 6 4 24 0 39 -8 26 -13 29 -13 33 2
2 13 5 13 12 2 8 -12 11 -12 19 1 9 13 10 13 10 0 0 -9 9 -16 20 -16 11 0 20
5 20 10 0 6 5 5 11 -1 8 -8 20 -8 36 -2 14 5 22 5 19 0 -3 -5 1 -12 10 -15 8
-3 12 -2 9 4 -3 6 1 10 9 10 8 0 18 -5 21 -10 4 -6 11 -8 16 -5 14 9 11 -29
-3 -44 -11 -11 -10 -12 0 -7 10 6 11 1 6 -21 -4 -15 -11 -30 -16 -31 -5 -2 -3
-11 4 -20 11 -13 11 -15 -3 -10 -9 4 -16 1 -16 -8 0 -7 5 -10 11 -7 7 4 6 1
-1 -8 -6 -8 -10 -28 -9 -46 2 -26 0 -30 -12 -21 -10 9 -12 8 -10 -3 2 -8 8
-17 13 -21 6 -5 5 -8 -2 -8 -7 0 -13 -7 -13 -15 0 -8 6 -15 13 -15 9 0 8 -3
-2 -9 -8 -5 -11 -16 -6 -30 4 -13 2 -21 -6 -21 -9 0 -9 -3 0 -14 9 -11 8 -18
-4 -30 -15 -14 -15 -16 -1 -16 9 0 16 -4 16 -10 0 -5 -6 -10 -12 -10 -10 0 -9
-3 1 -9 11 -7 11 -9 0 -14 -11 -5 -10 -9 3 -20 14 -11 15 -16 5 -27 -9 -10 -9
-11 0 -6 12 6 18 -5 14 -26 0 -5 3 -8 9 -8 5 0 7 -7 3 -15 -3 -10 0 -15 8 -13
8 2 14 -5 14 -14 0 -9 4 -20 9 -25 5 -5 6 -2 1 7 -5 9 -4 12 1 7 5 -5 9 -16 9
-25 0 -9 5 -16 12 -15 8 2 10 -4 6 -14 -4 -10 -2 -14 5 -9 7 4 10 -1 7 -14 -2
-11 0 -18 6 -15 5 4 9 -3 9 -14 0 -11 8 -25 18 -30 13 -8 14 -11 2 -11 -12 0
-11 -3 3 -11 10 -6 17 -20 16 -32 -2 -38 1 -48 13 -41 7 5 8 3 2 -7 -12 -19
-14 -39 -4 -39 4 0 10 -9 13 -20 4 -14 0 -20 -11 -20 -15 -1 -15 -2 1 -11 9
-5 17 -15 17 -20 0 -6 -5 -7 -11 -3 -8 4 -8 0 0 -15 7 -11 9 -21 5 -21 -3 0
-1 -7 6 -15 10 -12 9 -16 -5 -21 -13 -6 -14 -9 -3 -16 10 -7 10 -11 1 -15 -7
-2 -13 -9 -13 -14 0 -6 3 -8 8 -5 4 2 7 -16 7 -40 0 -31 -4 -43 -13 -39 -7 3
-6 -5 5 -22 l17 -26 -24 13 c-25 13 -25 13 -7 -8 13 -14 15 -22 7 -27 -7 -4
-10 -21 -8 -37 3 -16 0 -32 -5 -35 -6 -4 -7 -1 -2 7 5 9 4 11 -4 6 -6 -4 -8
-13 -4 -19 13 -21 12 -39 -2 -33 -10 4 -11 -2 -5 -23 4 -16 4 -34 0 -41 -5 -7
-6 -20 -2 -28 3 -9 1 -13 -5 -9 -5 3 -10 0 -10 -8 0 -8 5 -11 11 -8 6 4 5 -1
-3 -10 -11 -14 -11 -17 0 -17 12 0 12 -2 0 -9 -7 -5 -10 -14 -7 -20 4 -6 2
-11 -4 -11 -6 0 -8 -5 -5 -10 4 -6 1 -18 -7 -27 -7 -9 -8 -14 -2 -10 7 4 15 0
18 -9 3 -8 2 -13 -3 -10 -13 9 -23 -25 -11 -39 6 -8 6 -16 -3 -25 -9 -10 -9
-11 1 -6 6 4 12 3 12 -1 0 -5 -6 -15 -12 -22 -11 -11 -10 -12 1 -6 11 6 13 4
8 -8 -6 -16 111 -17 1603 -17 l1610 0 -2 2107 c-2 1680 -6 2107 -15 2106 -7
-2 -13 2 -13 8 0 5 -4 8 -9 4 -5 -3 -12 -1 -15 3 -3 5 -18 7 -32 4 -21 -4 -25
-2 -19 9 8 12 6 12 -8 0 -13 -10 -17 -10 -17 -1 0 7 -8 10 -20 7 -11 -3 -20
-1 -20 4 0 4 -7 5 -17 2 -11 -4 -14 -3 -9 5 9 15 -6 16 -21 1 -8 -8 -13 -7
-18 2 -6 8 -4 10 5 4 9 -5 11 -4 6 3 -5 9 -13 9 -28 1 -18 -10 -20 -9 -15 5 5
14 3 15 -13 6 -13 -7 -21 -7 -26 2 -5 7 -3 8 6 3 8 -5 11 -4 7 3 -4 5 -16 8
-27 5 -11 -3 -28 1 -37 8 -9 8 -14 9 -10 3 4 -7 -2 -10 -18 -6 -14 2 -23 8
-20 12 2 4 -7 5 -20 2 -14 -2 -31 1 -39 7 -11 9 -16 9 -22 0 -5 -8 -3 -9 6 -4
9 6 11 4 5 -5 -6 -10 -11 -9 -21 4 -6 9 -15 13 -18 8 -6 -10 -37 -8 -74 3 -18
6 -20 10 -10 16 9 6 9 9 1 9 -6 0 -15 -4 -18 -10 -8 -13 -52 -13 -60 0 -3 5
-12 7 -21 3 -12 -4 -12 -8 -2 -22 7 -9 1 -6 -14 7 -19 17 -28 20 -33 11 -6 -8
-4 -10 5 -4 8 5 11 4 6 -3 -4 -7 -17 -8 -35 -2 -17 5 -33 4 -39 -2 -6 -6 -12
-6 -17 3 -6 8 -4 10 5 4 8 -5 11 -4 6 3 -4 6 -13 9 -21 6 -8 -4 -13 -10 -10
-14 3 -5 0 -12 -6 -16 -7 -4 -9 -3 -5 4 3 6 2 13 -4 17 -5 3 -10 1 -10 -5 0
-6 -5 -8 -12 -4 -19 12 -48 12 -48 1 0 -6 -5 -6 -12 0 -18 13 -68 9 -78 -7 -6
-10 -9 -9 -13 1 -4 12 -7 11 -16 -1 -10 -13 -12 -13 -21 0 -5 8 -10 10 -10 4
0 -7 -7 -15 -16 -18 -8 -3 -13 -2 -10 2 2 4 -8 7 -24 7 -18 0 -26 -4 -23 -12
3 -7 1 -13 -4 -13 -5 0 -15 6 -22 13 -11 10 -13 10 -7 0 7 -12 -6 -18 -29 -13
-5 1 -16 -7 -23 -17 -10 -12 -13 -13 -9 -3 3 10 -2 16 -13 16 -10 0 -17 -4
-14 -7 2 -4 0 -10 -6 -14 -5 -3 -10 2 -10 12 -1 14 -4 13 -15 -7 -8 -14 -14
-19 -15 -10 0 11 -3 11 -12 2 -7 -7 -20 -12 -30 -12 -10 0 -18 -6 -18 -12 0
-9 -3 -8 -10 2 -8 12 -10 12 -16 -3 -5 -15 -9 -15 -22 -5 -12 10 -14 10 -8 1
4 -8 2 -13 -4 -13 -6 0 -8 -6 -5 -12 4 -7 -1 -4 -9 6 -15 18 -16 18 -16 2 0
-13 -5 -16 -21 -11 -15 5 -19 4 -15 -4 4 -6 0 -11 -8 -11 -9 0 -16 -6 -16 -12
0 -9 -4 -8 -10 2 -9 13 -14 7 -11 -12 0 -4 -6 -5 -14 -2 -9 4 -15 0 -15 -7 0
-11 -3 -11 -10 1 -7 12 -10 12 -10 1 0 -7 -6 -11 -15 -7 -8 3 -14 0 -12 -7 1
-7 -4 -11 -12 -9 -7 1 -19 -2 -25 -8 -7 -5 -17 -6 -21 -2 -5 4 -5 -2 -1 -13 4
-11 4 -16 0 -13 -4 4 -15 3 -25 -2 -12 -7 -19 -6 -22 3 -3 7 -6 5 -6 -6 -1 -9
-4 -17 -8 -16 -17 2 -52 -14 -48 -21 3 -5 0 -12 -6 -16 -7 -4 -9 -3 -5 4 4 6
-1 10 -13 9 -11 0 -19 -6 -18 -12 1 -5 -4 -9 -12 -7 -8 2 -11 -3 -8 -12 5 -11
0 -13 -24 -6 -28 8 -42 -3 -16 -13 6 -3 2 -6 -11 -6 -13 -1 -21 -5 -18 -10 3
-4 -5 -7 -18 -6 -24 3 -59 -27 -48 -41 4 -5 -1 -2 -10 5 -16 12 -18 11 -18 -5
0 -16 -2 -17 -10 -4 -9 14 -14 7 -11 -13 1 -5 -3 -6 -9 -2 -5 3 -23 -3 -39
-14 -35 -26 -37 -26 -43 -3 -3 10 -12 19 -21 19 -9 0 -14 -4 -11 -9 3 -4 0 -8
-5 -8 -6 0 -11 5 -11 10 0 6 -9 10 -21 10 -11 0 -17 5 -14 10 5 9 -16 15 -38
11 -5 -1 -6 3 -2 9 3 5 -1 10 -10 10 -9 0 -14 4 -11 9 3 5 -1 12 -10 15 -8 3
-12 2 -9 -4 3 -6 1 -10 -4 -10 -10 0 -15 14 -12 32 0 4 -7 4 -16 1 -10 -4 -14
-2 -9 5 4 7 -1 10 -15 7 -14 -3 -19 0 -16 8 3 7 -3 14 -13 14 -10 1 -28 11
-39 22 -12 12 -28 21 -36 21 -8 0 -23 8 -33 18 -28 26 -62 43 -72 37 -6 -4
-10 1 -10 9 0 8 -5 18 -12 22 -7 5 -8 3 -3 -7 8 -12 6 -12 -8 -1 -9 8 -22 10
-29 6 -7 -4 -10 -4 -6 1 9 10 -40 37 -53 29 -5 -3 -9 0 -9 6 0 7 -9 9 -22 5
-14 -4 -18 -3 -11 2 9 6 7 12 -8 22 -12 7 -18 8 -15 3 3 -6 -1 -12 -9 -15 -8
-4 -12 -1 -9 6 2 7 -5 18 -17 25 -12 8 -18 9 -14 3 3 -6 2 -11 -3 -11 -6 0
-13 7 -16 16 -5 13 -9 14 -21 4 -12 -10 -15 -9 -15 5 0 12 -6 16 -20 12 -11
-3 -20 -1 -20 5 0 6 -7 8 -15 5 -8 -4 -17 -1 -21 5 -4 7 -3 8 4 4 8 -5 10 -1
5 9 -5 13 -7 14 -14 3 -7 -11 -12 -11 -30 0 -11 8 -19 9 -15 4 3 -5 -2 -9 -10
-9 -8 0 -13 6 -10 13 3 9 -1 11 -11 7 -9 -4 -14 -2 -10 3 3 5 -3 10 -13 10
-15 0 -17 -3 -7 -16 8 -10 5 -9 -9 3 -11 9 -28 17 -37 17 -9 0 -17 6 -17 13 0
8 -4 7 -10 -3 -8 -12 -10 -12 -10 -1 0 11 -3 11 -17 0 -9 -8 -14 -9 -10 -3 4
8 -5 13 -28 16 -19 2 -36 -1 -39 -7 -2 -5 -7 -2 -11 8 -7 17 -8 17 -21 0 -12
-17 -13 -16 -9 6 4 22 3 23 -14 7 -17 -16 -19 -16 -25 1 -6 15 -9 15 -17 3 -8
-11 -12 -12 -15 -3 -3 7 -12 9 -20 6 -8 -3 -22 1 -31 8 -9 8 -14 9 -10 3 4 -7
1 -14 -6 -16 -17 -7 -38 2 -31 13 3 5 3 9 0 9 -3 0 -8 -5 -12 -11z m2486 -75
c0 -8 -19 -13 -24 -6 -3 5 1 9 9 9 8 0 15 -2 15 -3z m-2960 -2468 c0 -3 -4 -8
-10 -11 -5 -3 -10 -1 -10 4 0 6 5 11 10 11 6 0 10 -2 10 -4z"/>
<path d="M320 3529 c0 -5 5 -7 10 -4 6 3 10 8 10 11 0 2 -4 4 -10 4 -5 0 -10
-5 -10 -11z"/>
</g>
</svg>
